<svg width="25" height="24" viewBox="0 0 25 24" fill="none" xmlns="http://www.w3.org/2000/svg">
<path d="M2.3 0.5L3 1.7L4.2 2.3L3 3L2.3 4.2L1.7 3L0.5 2.3L1.7 1.7L2.3 0.5Z" fill="#FFA500"/>
<path d="M13.5 12.2C13.5 8.49995 15.5 5.29995 18.5 3.49995C17 2.59995 15.3 2.19995 13.5 2.19995C8 2.19995 3.5 6.69995 3.5 12.2C3.5 17.7 8 22.2 13.5 22.2C15.3 22.2 17 21.7 18.5 20.9C15.5 19.1999 13.5 15.9 13.5 12.2Z" fill="#FFA500" stroke="#FFA500" stroke-width="2" stroke-linejoin="round"/>
<path d="M22.3 10.5L23 11.7L24.2 12.3L23 13L22.3 14.2L21.7 13L20.5 12.3L21.7 11.7L22.3 10.5Z" fill="#FFA500"/>
</svg>
