<svg width="42" height="29" viewBox="0 0 42 29" fill="none" xmlns="http://www.w3.org/2000/svg">
<path d="M23.64 0.199951L24.2 1.15995L25.16 1.63995L24.2 2.19995L23.64 3.15995L23.16 2.19995L22.2 1.63995L23.16 1.15995L23.64 0.199951Z" fill="#FFA500"/>
<path d="M39.64 8.19995L40.2 9.15995L41.16 9.63995L40.2 10.2L39.64 11.16L39.16 10.2L38.2 9.63995L39.16 9.15995L39.64 8.19995Z" fill="#FFA500"/>
<path d="M32.6 9.55994C32.6 6.59994 34.2 4.03994 36.6 2.59994C35.4 1.87994 34.04 1.55994 32.6 1.55994C28.2 1.55994 24.6 5.15994 24.6 9.55994C24.6 13.9599 28.2 17.5599 32.6 17.5599C34.04 17.5599 35.4 17.1599 36.6 16.5199C34.2 15.1599 32.6 12.5199 32.6 9.55994Z" fill="#FFA500" stroke="#FFA500" stroke-width="1.6" stroke-linejoin="round"/>
<path d="M32.7 19.4C32.7 14.8 29 11.2 24.5 11.2C23.5 11.2 22.6 11.4 21.7 11.7C21.4 8.3 18.6 5.5 15.1 5.5C11.4 5.5 8.39997 8.5 8.39997 12.2C8.39997 13 8.59997 13.8 8.79997 14.5C8.49997 14.4 8.09997 14.4 7.79997 14.4C4.09997 14.4 1.09998 17.4 1.09998 21.1C1.09998 24.7 3.99998 27.7 7.59998 27.8H24.8C29.2 27.3 32.7 23.8 32.7 19.4Z" fill="#57A0EE" stroke="white" stroke-width="1.2" stroke-linejoin="round"/>
</svg>
