<svg width="34" height="30" viewBox="0 0 34 30" fill="none" xmlns="http://www.w3.org/2000/svg">
<path d="M23.62 9.24002C23.62 6.48003 21.4 4.32002 18.7 4.32002C18.1 4.32002 17.56 4.44002 17.02 4.62002C16.84 2.58002 15.16 0.900024 13.06 0.900024C10.84 0.900024 9.03997 2.70002 9.03997 4.92002C9.03997 5.40002 9.15997 5.88002 9.27997 6.30002C9.09997 6.24002 8.85997 6.24002 8.67997 6.24002C6.45997 6.24002 4.65997 8.04002 4.65997 10.26C4.65997 12.42 6.39997 14.22 8.55997 14.28H18.88C21.52 13.98 23.62 11.88 23.62 9.24002Z" fill="#91C0F8" stroke="white" stroke-width="0.72" stroke-linejoin="round"/>
<path d="M32.7 20.4C32.7 15.8 29 12.2 24.5 12.2C23.5 12.2 22.6 12.4 21.7 12.7C21.4 9.3 18.6 6.5 15.1 6.5C11.4 6.5 8.39997 9.5 8.39997 13.2C8.39997 14 8.59997 14.8 8.79997 15.5C8.49997 15.4 8.09997 15.4 7.79997 15.4C4.09997 15.4 1.09998 18.4 1.09998 22.1C1.09998 25.7 3.99998 28.7 7.59998 28.8H24.8C29.2 28.3 32.7 24.8 32.7 20.4Z" fill="#57A0EE" stroke="white" stroke-width="1.2" stroke-linejoin="round"/>
</svg>
