<svg width="34" height="40" viewBox="0 0 34 40" fill="none" xmlns="http://www.w3.org/2000/svg">
<path d="M23.62 9.24002C23.62 6.48003 21.4 4.32002 18.7 4.32002C18.1 4.32002 17.56 4.44002 17.02 4.62002C16.84 2.58002 15.16 0.900024 13.06 0.900024C10.84 0.900024 9.04003 2.70002 9.04003 4.92002C9.04003 5.40002 9.16003 5.88002 9.28003 6.30002C9.10003 6.24002 8.86003 6.24002 8.68003 6.24002C6.46003 6.24002 4.66003 8.04002 4.66003 10.26C4.66003 12.42 6.40003 14.22 8.56003 14.28H18.88C21.52 13.98 23.62 11.88 23.62 9.24002Z" fill="#91C0F8" stroke="white" stroke-width="0.72" stroke-linejoin="round"/>
<path d="M32.7 18.4C32.7 13.8 29 10.2 24.5 10.2C23.5 10.2 22.6 10.4 21.7 10.7C21.4 7.3 18.6 4.5 15.1 4.5C11.4 4.5 8.39997 7.5 8.39997 11.2C8.39997 12 8.59997 12.8 8.79997 13.5C8.49997 13.4 8.09997 13.4 7.79997 13.4C4.09997 13.4 1.09998 16.4 1.09998 20.1C1.09998 23.7 3.99998 26.7 7.59998 26.8H24.8C29.2 26.3 32.7 22.8 32.7 18.4Z" fill="#57A0EE" stroke="white" stroke-width="1.2" stroke-linejoin="round"/>
<path d="M13.1599 18.52H20.5999L15.6799 27.16H20.3599L9.79995 39.52L13.8799 30.28H9.31995L13.1599 18.52Z" fill="#FFA500" stroke="white" stroke-width="1.2"/>
</svg>
