<svg width="43" height="40" viewBox="0 0 43 40" fill="none" xmlns="http://www.w3.org/2000/svg">
<path d="M16 26.7999V30.3999" stroke="#FFA500" stroke-width="2.4" stroke-linecap="round"/>
<path d="M8.36322 23.6367L5.81764 26.1823" stroke="#FFA500" stroke-width="2.4" stroke-linecap="round"/>
<path d="M5.19995 16H1.59995" stroke="#FFA500" stroke-width="2.4" stroke-linecap="round"/>
<path d="M8.36322 8.36328L5.81764 5.8177" stroke="#FFA500" stroke-width="2.4" stroke-linecap="round"/>
<path d="M16 5.19995V1.59995" stroke="#FFA500" stroke-width="2.4" stroke-linecap="round"/>
<path d="M23.6367 8.36328L26.1823 5.8177" stroke="#FFA500" stroke-width="2.4" stroke-linecap="round"/>
<path d="M26.8 16H30.4" stroke="#FFA500" stroke-width="2.4" stroke-linecap="round"/>
<path d="M23.6367 23.6367L26.1823 26.1823" stroke="#FFA500" stroke-width="2.4" stroke-linecap="round"/>
<path d="M16 22C19.3137 22 22 19.3137 22 16C22 12.6863 19.3137 10 16 10C12.6863 10 10 12.6863 10 16C10 19.3137 12.6863 22 16 22Z" fill="#FFA500" stroke="#FFA500" stroke-width="2.4"/>
<path d="M41.545 25.09C41.545 21.18 38.4 18.12 34.575 18.12C33.725 18.12 32.96 18.29 32.195 18.545C31.94 15.655 29.56 13.275 26.585 13.275C23.44 13.275 20.89 15.825 20.89 18.97C20.89 19.65 21.06 20.33 21.23 20.925C20.975 20.84 20.635 20.84 20.38 20.84C17.235 20.84 14.685 23.39 14.685 26.535C14.685 29.595 17.15 32.145 20.21 32.23H34.83C38.57 31.805 41.545 28.83 41.545 25.09Z" fill="#57A0EE" stroke="white" stroke-width="1.275" stroke-linejoin="round"/>
<path d="M23 33.5V38.5" stroke="#57A0EE" stroke-width="1.2" stroke-linecap="round"/>
<path d="M24.7678 34.2322L21.2322 37.7677" stroke="#57A0EE" stroke-linecap="round"/>
<path d="M25.5 36H20.5" stroke="#57A0EE" stroke-linecap="round"/>
<path d="M24.7678 37.7678L21.2322 34.2323" stroke="#57A0EE" stroke-linecap="round"/>
<path d="M32 33.5V38.5" stroke="#57A0EE" stroke-width="1.2" stroke-linecap="round"/>
<path d="M33.7678 34.2322L30.2322 37.7677" stroke="#57A0EE" stroke-linecap="round"/>
<path d="M34.5 36H29.5" stroke="#57A0EE" stroke-linecap="round"/>
<path d="M33.7678 37.7678L30.2322 34.2323" stroke="#57A0EE" stroke-linecap="round"/>
</svg>
